#N canvas 0 38 1512 916 10;
#X obj 4 32 cnv 15 450 200 empty empty empty 20 12 0 14 #9f9f9f #404040 0;
#X obj 7 37 cnv 15 62 56 empty empty empty 20 12 0 14 #ffffff #404040 0;
#X obj 7 94 cnv 15 62 110 empty empty empty 20 12 0 14 #ffffff #404040 0;
#X obj 104 37 cnv 15 26 167 empty empty empty 20 12 0 14 #ffffff #404040 0;
#X obj 131 94 cnv 15 320 110 empty empty empty 20 12 0 14 #ffffff #404040 0;
#N canvas 0 38 1512 916 Main 1;
#X obj 1217 670 readsf~;
#X obj 966 645 readsf~;
#X obj 424 678 readsf~;
#X obj 196 678 readsf~;
#X obj 1677 572 bng 15 250 50 0 empty KICK empty 17 7 0 10 #fcfcfc #000000 #000000;
#X obj 966 590 bng 15 250 50 0 empty HAT empty 17 7 0 10 #fcfcfc #000000 #000000;
#X obj 424 624 bng 15 250 50 0 empty SNARE empty 17 7 0 10 #fcfcfc #000000 #000000;
#X obj 196 623 bng 15 250 50 0 empty CLAP empty 17 7 0 10 #fcfcfc #000000 #000000;
#X obj 1302 671 hsl 128 15 0 1 0 0 empty KICKslid empty -2 -8 0 10 #fcfcfc #000000 #000000 0 1;
#X obj 1217 722 *~;
#X obj 1299 706 sig~;
#X obj 1060 646 hsl 128 15 0 1 0 0 empty HATslid empty -2 -8 0 10 #fcfcfc #000000 #000000 0 1;
#X obj 966 697 *~;
#X obj 1057 681 sig~;
#X obj 516 679 hsl 128 15 0 1 0 0 empty SNAREslid empty -2 -8 0 10 #fcfcfc #000000 #000000 0 1;
#X obj 424 730 *~;
#X obj 513 715 sig~;
#X obj 282 679 hsl 128 15 0 1 0 0 empty CLAPslid empty -2 -8 0 10 #fcfcfc #000000 #000000 0 1;
#X obj 196 728 *~;
#X obj 279 712 sig~;
#X obj 674 860 *~;
#X obj 756 844 hsl 128 15 0 1 0 0 empty MASTER empty -2 -8 0 10 #fcfcfc #000000 #000000 0 1;
#X msg 143 811 \; pd dsp \$1;
#X obj 143 785 tgl 15 0 empty DSP empty 17 7 0 10 #fcfcfc #000000 #000000 0 1;
#X obj 674 903 dac~;
#X obj 981 -104 loadbang;
#N canvas 315 116 536 267 kills 0;
#X floatatom 75 101 5 0 0 0 - killkick offkick 0;
#X text 73 83 kick;
#X floatatom 122 101 5 0 0 0 - killhat offhat 0;
#X text 120 83 hat;
#X floatatom 168 101 5 0 0 0 - killsnare offsnare 0;
#X text 166 83 snare;
#X floatatom 213 101 5 0 0 0 - killclap offclap 0;
#X text 211 83 clap;
#X restore 81 785 pd kills;
#X obj 933 14 expr 15000 / $f1;
#X obj 1019 -19 s tempo;
#X msg 981 -57 60;
#X obj 429 -122 tgl 16 0 empty SQStart empty 0 -8 0 10 #fcfcfc #000000 #000000 0 1;
#X msg 196 646 open clap.wav \, 1;
#X msg 424 646 open snare.wav \, 1;
#X msg 966 611 open hat.wav \, 1;
#X msg 1217 638 open kick.wav \, 1;
#X obj 1662 164 metro;
#X floatatom 1689 102 5 0 0 0 - - - 0;
#X obj 1662 119 tgl 15 0 empty StartSQ empty 17 7 0 10 #fcfcfc #000000 #000000 0 1;
#X obj 1633 236 hradio 15 1 0 8 SQ empty empty 0 -8 0 10 #fcfcfc #000000 #000000 0;
#X obj 1713 164 bng 15 250 50 0 empty empty empty 17 7 0 10 #fcfcfc #000000 #000000;
#X obj 1448 380 tgl 14 0 empty Kick1 empty 17 7 0 10 #fcfcfc #000000 #000000 0 1;
#X obj 1402 379 spigot;
#X obj 1402 408 bng 15 250 50 0 empty empty empty 17 7 0 10 #fcfcfc #000000 #000000;
#X obj 1514 381 tgl 15 0 empty Kick2 empty 17 7 0 10 #fcfcfc #000000 #000000 0 1;
#X obj 1468 380 spigot;
#X obj 1468 411 bng 15 250 50 0 empty empty empty 17 7 0 10 #fcfcfc #000000 #000000;
#X obj 1580 380 tgl 15 0 empty Kick3 empty 17 7 0 10 #fcfcfc #000000 #000000 0 1;
#X obj 1534 380 spigot;
#X obj 1645 379 tgl 15 0 empty Kick4 empty 17 7 0 10 #fcfcfc #000000 #000000 0 1;
#X obj 1601 379 spigot;
#X obj 1601 412 bng 15 250 50 0 empty empty empty 17 7 0 10 #fcfcfc #000000 #000000;
#X obj 1709 380 tgl 15 0 empty Kick5 empty 17 7 0 10 #fcfcfc #000000 #000000 0 1;
#X obj 1665 380 spigot;
#X obj 1665 411 bng 15 250 50 0 empty empty empty 17 7 0 10 #fcfcfc #000000 #000000;
#X obj 1776 380 tgl 15 0 empty Kick6 empty 17 7 0 10 #fcfcfc #000000 #000000 0 1;
#X obj 1730 379 spigot;
#X obj 1730 412 bng 15 250 50 0 empty empty empty 17 7 0 10 #fcfcfc #000000 #000000;
#X obj 1840 378 tgl 15 0 empty Kick7 empty 17 7 0 10 #fcfcfc #000000 #000000 0 1;
#X obj 1795 378 spigot;
#X obj 1795 414 bng 15 250 50 0 empty empty empty 17 7 0 10 #fcfcfc #000000 #000000;
#X obj 1906 378 tgl 15 0 empty Kick8 empty 17 7 0 10 #fcfcfc #000000 #000000 0 1;
#X obj 1861 377 spigot;
#X obj 1861 415 bng 15 250 50 0 empty empty empty 17 7 0 10 #fcfcfc #000000 #000000;
#X obj 1970 379 tgl 15 0 empty Kick9 empty 17 7 0 10 #fcfcfc #000000 #000000 0 1;
#X obj 1926 378 spigot;
#X obj 1926 415 bng 15 250 50 0 empty empty empty 17 7 0 10 #fcfcfc #000000 #000000;
#X obj 1713 134 sel 0;
#X obj 1861 548 delay;
#X floatatom 1912 550 5 0 127 0 - delayKICK - 0;
#X text 1639 101 KICK;
#X obj 1534 412 bng 15 250 50 0 empty empty empty 17 7 0 10 #fcfcfc #000000 #000000;
#X floatatom 1956 550 5 0 0 0 - - KickDW 0;
#X obj 1633 269 sel 0 1 2 3 4 5 6 7;
#X obj 1662 194 f;
#X obj 1729 196 + 1;
#X obj 1662 215 mod 8;
#X obj 1114 144 metro;
#X floatatom 1141 93 5 0 0 0 - - - 0;
#X obj 1114 93 tgl 15 0 empty StartSQ empty 17 7 0 10 #fcfcfc #000000 #000000 0 1;
#X obj 1106 233 hradio 15 1 0 8 SQ empty empty 0 -8 0 10 #fcfcfc #000000 #000000 0;
#X obj 1169 155 bng 15 250 50 0 empty empty empty 17 7 0 10 #fcfcfc #000000 #000000;
#X obj 870 288 tgl 14 0 empty Hat1 empty 17 7 0 10 #fcfcfc #000000 #000000 0 1;
#X obj 840 315 spigot;
#X obj 846 347 bng 15 250 50 0 empty empty empty 17 7 0 10 #fcfcfc #000000 #000000;
#X obj 912 305 tgl 15 0 empty Hat2 empty 17 7 0 10 #fcfcfc #000000 #000000 0 1;
#X obj 880 340 spigot;
#X obj 877 388 bng 15 250 50 0 empty empty empty 17 7 0 10 #fcfcfc #000000 #000000;
#X obj 957 314 tgl 15 0 empty Hat3 empty 17 7 0 10 #fcfcfc #000000 #000000 0 1;
#X obj 924 342 spigot;
#X obj 932 392 bng 15 250 50 0 empty empty empty 17 7 0 10 #fcfcfc #000000 #000000;
#X obj 1010 304 tgl 15 0 empty Hat4 empty 17 7 0 10 #fcfcfc #000000 #000000 0 1;
#X obj 977 332 spigot;
#X obj 985 382 bng 15 250 50 0 empty empty empty 17 7 0 10 #fcfcfc #000000 #000000;
#X obj 1056 292 tgl 15 0 empty Hat5 empty 17 7 0 10 #fcfcfc #000000 #000000 0 1;
#X obj 1023 320 spigot;
#X obj 1035 378 bng 15 250 50 0 empty empty empty 17 7 0 10 #fcfcfc #000000 #000000;
#X obj 1105 300 tgl 15 0 empty Hat6 empty 17 7 0 10 #fcfcfc #000000 #000000 0 1;
#X obj 1076 336 spigot;
#X obj 1084 386 bng 15 250 50 0 empty empty empty 17 7 0 10 #fcfcfc #000000 #000000;
#X obj 1159 295 tgl 15 0 empty Hat7 empty 17 7 0 10 #fcfcfc #000000 #000000 0 1;
#X obj 1126 323 spigot;
#X obj 1138 381 bng 15 250 50 0 empty empty empty 17 7 0 10 #fcfcfc #000000 #000000;
#X obj 1203 294 tgl 15 0 empty Hat8 empty 17 7 0 10 #fcfcfc #000000 #000000 0 1;
#X obj 1170 321 spigot;
#X obj 1197 375 bng 15 250 50 0 empty empty empty 17 7 0 10 #fcfcfc #000000 #000000;
#X obj 1250 294 tgl 15 0 empty Hat9 empty 17 7 0 10 #fcfcfc #000000 #000000 0 1;
#X obj 1217 322 spigot;
#X obj 1229 380 bng 15 250 50 0 empty empty empty 17 7 0 10 #fcfcfc #000000 #000000;
#X obj 1169 134 sel 0;
#X obj 1190 473 delay;
#X floatatom 1230 473 5 0 127 0 - delayHAT - 0;
#X text 1092 92 HAT;
#X floatatom 1273 475 5 0 0 0 - - HatDW 0;
#X obj 1110 270 sel 0 1 2 3 4 5 6 7;
#X obj 1112 184 f;
#X obj 1179 186 + 1;
#X obj 1112 205 mod 8;
#X obj 645 182 metro;
#X floatatom 671 133 5 0 0 0 - - - 0;
#X obj 639 143 tgl 15 0 empty StartSQ empty 17 7 0 10 #fcfcfc #000000 #000000 0 1;
#X obj 637 266 hradio 15 1 0 8 SQ empty empty 0 -8 0 10 #fcfcfc #000000 #000000 0;
#X obj 712 211 bng 15 250 50 0 empty empty empty 17 7 0 10 #fcfcfc #000000 #000000;
#X obj 388 352 tgl 14 0 empty Snare1 empty 17 7 0 10 #fcfcfc #000000 #000000 0 1;
#X obj 358 379 spigot;
#X obj 357 425 bng 15 250 50 0 empty empty empty 17 7 0 10 #fcfcfc #000000 #000000;
#X obj 431 376 tgl 15 0 empty Snare2 empty 17 7 0 10 #fcfcfc #000000 #000000 0 1;
#X obj 398 404 spigot;
#X obj 410 435 bng 15 250 50 0 empty empty empty 17 7 0 10 #fcfcfc #000000 #000000;
#X obj 476 373 tgl 15 0 empty Snare3 empty 17 7 0 10 #fcfcfc #000000 #000000 0 1;
#X obj 443 401 spigot;
#X obj 451 451 bng 15 250 50 0 empty empty empty 17 7 0 10 #fcfcfc #000000 #000000;
#X obj 529 363 tgl 15 0 empty Snare4 empty 17 7 0 10 #fcfcfc #000000 #000000 0 1;
#X obj 496 391 spigot;
#X obj 504 441 bng 15 250 50 0 empty empty empty 17 7 0 10 #fcfcfc #000000 #000000;
#X obj 579 359 tgl 15 0 empty Snare5 empty 17 7 0 10 #fcfcfc #000000 #000000 0 1;
#X obj 546 387 spigot;
#X obj 554 437 bng 15 250 50 0 empty empty empty 17 7 0 10 #fcfcfc #000000 #000000;
#X obj 628 367 tgl 15 0 empty Snare6 empty 17 7 0 10 #fcfcfc #000000 #000000 0 1;
#X obj 595 395 spigot;
#X obj 603 445 bng 15 250 50 0 empty empty empty 17 7 0 10 #fcfcfc #000000 #000000;
#X obj 682 362 tgl 15 0 empty Snare7 empty 17 7 0 10 #fcfcfc #000000 #000000 0 1;
#X obj 649 390 spigot;
#X obj 657 440 bng 15 250 50 0 empty empty empty 17 7 0 10 #fcfcfc #000000 #000000;
#X obj 726 361 tgl 15 0 empty Snare8 empty 17 7 0 10 #fcfcfc #000000 #000000 0 1;
#X obj 693 388 spigot;
#X obj 716 434 bng 15 250 50 0 empty empty empty 17 7 0 10 #fcfcfc #000000 #000000;
#X obj 773 361 tgl 15 0 empty Snare9 empty 17 7 0 10 #fcfcfc #000000 #000000 0 1;
#X obj 740 389 spigot;
#X obj 748 439 bng 15 250 50 0 empty empty empty 17 7 0 10 #fcfcfc #000000 #000000;
#X obj 712 179 sel 0;
#X text 604 142 SNARE;
#X obj 710 522 delay;
#X floatatom 750 523 5 0 127 0 - delaySNARE - 0;
#X floatatom 791 523 5 0 0 0 - - SnareDW 0;
#X obj 637 302 sel 0 1 2 3 4 5 6 7;
#X obj 610 222 f;
#X obj 677 224 + 1;
#X obj 610 243 mod 8;
#X obj 24 130 metro;
#X floatatom 51 99 5 0 0 0 - - - 0;
#X obj 18 91 tgl 15 0 empty StartSQ empty 17 7 0 10 #fcfcfc #000000 #000000 0 1;
#X obj 16 214 hradio 15 1 0 8 SQ empty empty 0 -8 0 10 #fcfcfc #000000 #000000 0;
#X obj 68 153 bng 15 250 50 0 empty empty empty 17 7 0 10 #fcfcfc #000000 #000000;
#X obj -208 299 tgl 14 0 empty Clap1 empty 17 7 0 10 #fcfcfc #000000 #000000 0 1;
#X obj -242 333 spigot;
#X obj -238 372 bng 15 250 50 0 empty empty empty 17 7 0 10 #fcfcfc #000000 #000000;
#X obj -179 334 tgl 15 0 empty Clap2 empty 17 7 0 10 #fcfcfc #000000 #000000 0 1;
#X obj -212 362 spigot;
#X obj -214 417 bng 15 250 50 0 empty empty empty 17 7 0 10 #fcfcfc #000000 #000000;
#X obj -134 331 tgl 15 0 empty Clap3 empty 17 7 0 10 #fcfcfc #000000 #000000 0 1;
#X obj -167 359 spigot;
#X obj -159 409 bng 15 250 50 0 empty empty empty 17 7 0 10 #fcfcfc #000000 #000000;
#X obj -81 321 tgl 15 0 empty Clap4 empty 17 7 0 10 #fcfcfc #000000 #000000 0 1;
#X obj -114 349 spigot;
#X obj -106 399 bng 15 250 50 0 empty empty empty 17 7 0 10 #fcfcfc #000000 #000000;
#X obj -36 318 tgl 15 0 empty Clap5 empty 17 7 0 10 #fcfcfc #000000 #000000 0 1;
#X obj -69 346 spigot;
#X obj -61 396 bng 15 250 50 0 empty empty empty 17 7 0 10 #fcfcfc #000000 #000000;
#X obj 10 326 tgl 15 0 empty Clap6 empty 17 7 0 10 #fcfcfc #000000 #000000 0 1;
#X obj -20 354 spigot;
#X obj -12 404 bng 15 250 50 0 empty empty empty 17 7 0 10 #fcfcfc #000000 #000000;
#X obj 61 305 tgl 15 0 empty Clap7 empty 17 7 0 10 #fcfcfc #000000 #000000 0 1;
#X obj 28 333 spigot;
#X obj 36 383 bng 15 250 50 0 empty empty empty 17 7 0 10 #fcfcfc #000000 #000000;
#X obj 105 304 tgl 15 0 empty Clap8 empty 17 7 0 10 #fcfcfc #000000 #000000 0 1;
#X obj 72 331 spigot;
#X obj 95 377 bng 15 250 50 0 empty empty empty 17 7 0 10 #fcfcfc #000000 #000000;
#X obj 152 304 tgl 15 0 empty Clap9 empty 17 7 0 10 #fcfcfc #000000 #000000 0 1;
#X obj 119 332 spigot;
#X obj 127 382 bng 15 250 50 0 empty empty empty 17 7 0 10 #fcfcfc #000000 #000000;
#X obj 67 129 sel 0;
#X text -13 89 CLAP;
#X obj 159 473 delay;
#X floatatom 199 472 5 0 127 0 - delayCLAP - 0;
#X floatatom 241 473 5 0 0 0 - - ClapDW 0;
#X obj 16 245 sel 0 1 2 3 4 5 6 7;
#X obj -4 171 f;
#X obj 63 173 + 1;
#X obj -4 192 mod 8;
#X connect 0 0 9 0;
#X connect 1 0 12 0;
#X connect 2 0 15 0;
#X connect 3 0 18 0;
#X connect 4 0 34 0;
#X connect 5 0 33 0;
#X connect 6 0 32 0;
#X connect 7 0 31 0;
#X connect 8 0 10 0;
#X connect 9 0 20 0;
#X connect 10 0 9 1;
#X connect 11 0 13 0;
#X connect 12 0 20 0;
#X connect 13 0 12 1;
#X connect 14 0 16 0;
#X connect 15 0 20 0;
#X connect 16 0 15 1;
#X connect 17 0 19 0;
#X connect 18 0 20 0;
#X connect 19 0 18 1;
#X connect 20 0 24 0;
#X connect 20 0 24 1;
#X connect 21 0 20 1;
#X connect 23 0 22 0;
#X connect 25 0 29 0;
#X connect 27 0 36 0;
#X connect 27 0 77 0;
#X connect 27 0 118 0;
#X connect 27 0 159 0;
#X connect 29 0 27 0;
#X connect 29 0 28 0;
#X connect 30 0 37 0;
#X connect 30 0 78 0;
#X connect 30 0 119 0;
#X connect 30 0 160 0;
#X connect 31 0 3 0;
#X connect 32 0 2 0;
#X connect 33 0 1 0;
#X connect 34 0 0 0;
#X connect 35 0 73 0;
#X connect 36 0 35 1;
#X connect 37 0 35 0;
#X connect 37 0 66 0;
#X connect 38 0 72 0;
#X connect 40 0 41 1;
#X connect 41 0 42 0;
#X connect 42 0 4 0;
#X connect 43 0 44 1;
#X connect 44 0 45 0;
#X connect 45 0 67 0;
#X connect 46 0 47 1;
#X connect 47 0 70 0;
#X connect 48 0 49 1;
#X connect 49 0 50 0;
#X connect 50 0 67 0;
#X connect 51 0 52 1;
#X connect 52 0 53 0;
#X connect 53 0 4 0;
#X connect 54 0 55 1;
#X connect 55 0 56 0;
#X connect 56 0 67 0;
#X connect 57 0 58 1;
#X connect 58 0 59 0;
#X connect 59 0 4 0;
#X connect 60 0 61 1;
#X connect 61 0 62 0;
#X connect 62 0 67 0;
#X connect 63 0 64 1;
#X connect 64 0 65 0;
#X connect 65 0 4 0;
#X connect 66 0 39 0;
#X connect 67 0 4 0;
#X connect 68 0 67 1;
#X connect 68 0 71 0;
#X connect 70 0 4 0;
#X connect 72 0 41 0;
#X connect 72 1 44 0;
#X connect 72 2 47 0;
#X connect 72 3 49 0;
#X connect 72 4 52 0;
#X connect 72 5 55 0;
#X connect 72 6 58 0;
#X connect 72 7 61 0;
#X connect 72 8 64 0;
#X connect 73 0 74 0;
#X connect 73 0 75 0;
#X connect 74 0 73 1;
#X connect 75 0 38 0;
#X connect 76 0 114 0;
#X connect 77 0 76 1;
#X connect 78 0 76 0;
#X connect 78 0 108 0;
#X connect 79 0 113 0;
#X connect 81 0 82 1;
#X connect 82 0 83 0;
#X connect 83 0 5 0;
#X connect 84 0 85 1;
#X connect 85 0 86 0;
#X connect 86 0 109 0;
#X connect 87 0 88 1;
#X connect 88 0 89 0;
#X connect 89 0 5 0;
#X connect 90 0 91 1;
#X connect 91 0 92 0;
#X connect 92 0 109 0;
#X connect 93 0 94 1;
#X connect 94 0 95 0;
#X connect 95 0 5 0;
#X connect 96 0 97 1;
#X connect 97 0 98 0;
#X connect 98 0 109 0;
#X connect 99 0 100 1;
#X connect 100 0 101 0;
#X connect 101 0 5 0;
#X connect 102 0 103 1;
#X connect 103 0 104 0;
#X connect 104 0 109 0;
#X connect 105 0 106 1;
#X connect 106 0 107 0;
#X connect 107 0 5 0;
#X connect 108 0 80 0;
#X connect 109 0 5 0;
#X connect 110 0 109 1;
#X connect 110 0 112 0;
#X connect 113 0 82 0;
#X connect 113 1 85 0;
#X connect 113 2 88 0;
#X connect 113 3 91 0;
#X connect 113 4 94 0;
#X connect 113 5 97 0;
#X connect 113 6 100 0;
#X connect 113 7 103 0;
#X connect 113 8 106 0;
#X connect 114 0 115 0;
#X connect 114 0 116 0;
#X connect 115 0 114 1;
#X connect 116 0 79 0;
#X connect 117 0 155 0;
#X connect 118 0 117 1;
#X connect 119 0 117 0;
#X connect 119 0 149 0;
#X connect 120 0 154 0;
#X connect 122 0 123 1;
#X connect 123 0 124 0;
#X connect 124 0 6 0;
#X connect 125 0 126 1;
#X connect 126 0 127 0;
#X connect 127 0 151 0;
#X connect 128 0 129 1;
#X connect 129 0 130 0;
#X connect 130 0 6 0;
#X connect 131 0 132 1;
#X connect 132 0 133 0;
#X connect 133 0 151 0;
#X connect 134 0 135 1;
#X connect 135 0 136 0;
#X connect 136 0 6 0;
#X connect 137 0 138 1;
#X connect 138 0 139 0;
#X connect 139 0 151 0;
#X connect 140 0 141 1;
#X connect 141 0 142 0;
#X connect 142 0 6 0;
#X connect 143 0 144 1;
#X connect 144 0 145 0;
#X connect 145 0 151 0;
#X connect 146 0 147 1;
#X connect 147 0 148 0;
#X connect 148 0 6 0;
#X connect 149 0 121 0;
#X connect 151 0 6 0;
#X connect 152 0 151 1;
#X connect 152 0 153 0;
#X connect 154 0 123 0;
#X connect 154 1 126 0;
#X connect 154 2 129 0;
#X connect 154 3 132 0;
#X connect 154 4 135 0;
#X connect 154 5 138 0;
#X connect 154 6 141 0;
#X connect 154 7 144 0;
#X connect 154 8 147 0;
#X connect 155 0 156 0;
#X connect 155 0 157 0;
#X connect 156 0 155 1;
#X connect 157 0 120 0;
#X connect 158 0 196 0;
#X connect 159 0 158 1;
#X connect 160 0 158 0;
#X connect 160 0 190 0;
#X connect 161 0 195 0;
#X connect 163 0 164 1;
#X connect 164 0 165 0;
#X connect 165 0 7 0;
#X connect 166 0 167 1;
#X connect 167 0 168 0;
#X connect 168 0 192 0;
#X connect 169 0 170 1;
#X connect 170 0 171 0;
#X connect 171 0 7 0;
#X connect 172 0 173 1;
#X connect 173 0 174 0;
#X connect 174 0 192 0;
#X connect 175 0 176 1;
#X connect 176 0 177 0;
#X connect 177 0 7 0;
#X connect 178 0 179 1;
#X connect 179 0 180 0;
#X connect 180 0 192 0;
#X connect 181 0 182 1;
#X connect 182 0 183 0;
#X connect 183 0 7 0;
#X connect 184 0 185 1;
#X connect 185 0 186 0;
#X connect 186 0 192 0;
#X connect 187 0 188 1;
#X connect 188 0 189 0;
#X connect 189 0 7 0;
#X connect 190 0 162 0;
#X connect 192 0 7 0;
#X connect 193 0 192 1;
#X connect 193 0 194 0;
#X connect 195 0 164 0;
#X connect 195 1 167 0;
#X connect 195 2 170 0;
#X connect 195 3 173 0;
#X connect 195 4 176 0;
#X connect 195 5 179 0;
#X connect 195 6 182 0;
#X connect 195 7 185 0;
#X connect 195 8 188 0;
#X connect 196 0 197 0;
#X connect 196 0 198 0;
#X connect 197 0 196 1;
#X connect 198 0 161 0;
#X restore 5 12 pd Main;
#X obj 138 101 tgl 15 0 Kick1 offkick empty 17 7 0 10 #f0f4d0 #000000 #000000 0 1;
#X obj 157 101 tgl 15 0 Kick2 offkick empty 17 7 0 10 #fcfcfc #000000 #000000 0 1;
#X obj 176 101 tgl 15 0 Kick3 offkick empty 17 7 0 10 #fcfcfc #000000 #000000 0 1;
#X obj 195 101 tgl 15 0 Kick4 offkick empty 17 7 0 10 #fcfcfc #000000 #000000 0 1;
#X obj 214 101 tgl 15 0 Kick5 offkick empty 17 7 0 10 #f0f4d0 #000000 #000000 0 1;
#X obj 233 101 tgl 15 0 Kick6 offkick empty 17 7 0 10 #fcfcfc #000000 #000000 0 1;
#X obj 252 101 tgl 15 0 Kick7 offkick empty 17 7 0 10 #fcfcfc #000000 #000000 0 1;
#X obj 271 101 tgl 15 0 Kick8 offkick empty 17 7 0 10 #fcfcfc #000000 #000000 0 1;
#X obj 135 209 hradio 19 1 0 8 NOS SQ empty 0 -8 0 10 #fcfcfc #000000 #000000 0;
#X obj 138 126 tgl 15 0 Hat1 offhat empty 17 7 0 10 #f0f4d0 #000000 #000000 0 1;
#X obj 157 126 tgl 15 0 Hat2 offhat empty 17 7 0 10 #fcfcfc #000000 #000000 0 1;
#X obj 176 126 tgl 15 0 Hat3 offhat empty 17 7 0 10 #fcfcfc #000000 #000000 0 1;
#X obj 195 126 tgl 15 0 Hat4 offhat empty 17 7 0 10 #fcfcfc #000000 #000000 0 1;
#X obj 214 126 tgl 15 0 Hat5 offhat empty 17 7 0 10 #f0f4d0 #000000 #000000 0 1;
#X obj 233 126 tgl 15 0 Hat6 offhat empty 17 7 0 10 #fcfcfc #000000 #000000 0 1;
#X obj 252 126 tgl 15 0 Hat7 offhat empty 17 7 0 10 #fcfcfc #000000 #000000 0 1;
#X obj 271 126 tgl 15 0 Hat8 offhat empty 17 7 0 10 #fcfcfc #000000 #000000 0 1;
#X text 23 102 Kick;
#X text 29 127 Hat;
#X text 8 38 Play/Stop;
#X obj 138 152 tgl 15 0 Snare1 offsnare empty 17 7 0 10 #f0f4d0 #000000 #000000 0 1;
#X obj 157 152 tgl 15 0 Snare2 offsnare empty 17 7 0 10 #fcfcfc #000000 #000000 0 1;
#X obj 176 152 tgl 15 0 Snare3 offsnare empty 17 7 0 10 #fcfcfc #000000 #000000 0 1;
#X obj 195 152 tgl 15 0 Snare4 offsnare empty 17 7 0 10 #fcfcfc #000000 #000000 0 1;
#X obj 214 152 tgl 15 0 Snare5 offsnare empty 17 7 0 10 #f0f4d0 #000000 #000000 0 1;
#X obj 233 152 tgl 15 0 Snare6 offsnare empty 17 7 0 10 #fcfcfc #000000 #000000 0 1;
#X obj 252 152 tgl 15 0 Snare7 offsnare empty 17 7 0 10 #fcfcfc #000000 #000000 0 1;
#X obj 271 152 tgl 15 0 Snare8 offsnare empty 17 7 0 10 #fcfcfc #000000 #000000 0 1;
#X obj 138 177 tgl 15 0 Clap1 offclap empty 17 7 0 10 #f0f4d0 #000000 #000000 0 1;
#X obj 157 177 tgl 15 0 Clap2 offclap empty 17 7 0 10 #fcfcfc #000000 #000000 0 1;
#X obj 176 177 tgl 15 0 Clap3 offclap empty 17 7 0 10 #fcfcfc #000000 #000000 0 1;
#X obj 195 177 tgl 15 0 Clap4 offclap empty 17 7 0 10 #fcfcfc #000000 #000000 0 1;
#X obj 214 177 tgl 15 0 Clap5 offclap empty 17 7 0 10 #f0f4d0 #000000 #000000 0 1;
#X obj 233 177 tgl 15 0 Clap6 offclap empty 17 7 0 10 #fcfcfc #000000 #000000 0 1;
#X obj 252 177 tgl 15 0 Clap7 offclap empty 17 7 0 10 #fcfcfc #000000 #000000 0 1;
#X obj 271 177 tgl 15 0 Clap8 offclap empty 17 7 0 10 #fcfcfc #000000 #000000 0 1;
#X text 17 152 Snare;
#X text 23 177 Clap;
#X obj 110 101 bng 15 250 50 0 killkick NOR empty 17 7 0 10 #fcfcfc #000000 #000000;
#X obj 110 126 bng 15 250 50 0 killhat NOR empty 17 7 0 10 #fcfcfc #000000 #000000;
#X obj 110 152 bng 15 250 50 0 killsnare NOR empty 17 7 0 10 #fcfcfc #000000 #000000;
#X obj 110 177 bng 15 250 50 0 killclap NOR empty 17 7 0 10 #fcfcfc #000000 #000000;
#X obj 20 56 tgl 31 0 SQStart NOR empty 17 7 2 10 #fcfcfc #a0a0a0 #fcfcfc 0 1;
#X obj 73 69 cnv 16 26 130 empty empty empty 20 12 0 10 #e0e0e0 #404040 0;
#X obj 131 37 cnv 16 320 56 empty empty empty 20 12 0 10 #ffffff #404040 0;
#X obj 113 58 hsl 172 16 0 127 0 0 MASTER empty empty -2 -8 0 10 #fcfcfc #000000 #000000 0 1;
#X obj 298 58 tgl 16 0 DSP empty empty 0 -8 0 10 #fcfcfc #000000 #000000 0 1;
#X text 107 40 MASTER VOLUME;
#X obj 78 100 bng 16 250 50 0 KICK NOR empty 0 -8 0 10 #fcfcfc #000000 #000000;
#X obj 78 125 bng 16 250 50 0 HAT NOR empty 0 -8 0 10 #fcfcfc #000000 #000000;
#X obj 78 152 bng 16 250 50 0 SNARE NOR empty 0 -8 0 10 #fcfcfc #000000 #000000;
#X obj 78 176 bng 16 250 50 0 CLAP NOR empty 0 -8 0 10 #fcfcfc #000000 #000000;
#X text 106 78 KILL;
#X text 71 78 TEST;
#X obj 301 101 hsl 136 16 0 127 0 0 KICKslid NOR empty -2 -8 0 10 #fcfcfc #000000 #000000 0 1;
#X obj 301 126 hsl 136 16 0 127 0 0 HATslid NOR empty -2 -8 0 10 #fcfcfc #000000 #000000 0 1;
#X obj 301 152 hsl 136 16 0 127 0 0 SNAREslid NOR empty -2 -8 0 10 #fcfcfc #000000 #000000 0 1;
#X obj 301 177 hsl 136 16 0 127 0 0 CLAPslid NOR empty -2 -8 0 10 #fcfcfc #000000 #000000 0 1;
#X text 296 79 VOLUME;
#X text 295 39 DSP;
